M48
; DRILL file {KiCad (6.0.5)} date Sat Apr  1 18:57:06 2023
; FORMAT={-:-/ absolute / inch / decimal}
; #@! TF.CreationDate,2023-04-01T18:57:06-04:00
; #@! TF.GenerationSoftware,Kicad,Pcbnew,(6.0.5)
; #@! TF.FileFunction,NonPlated,1,2,NPTH
FMAT,2
INCH
; #@! TA.AperFunction,NonPlated,NPTH,ComponentDrill
T1C0.0689
; #@! TA.AperFunction,NonPlated,NPTH,ComponentDrill
T2C0.1200
; #@! TA.AperFunction,NonPlated,NPTH,ComponentDrill
T3C0.1570
%
G90
G05
T1
X0.3625Y-1.25
X0.4562Y-4.25
X0.55Y-2.0
X0.6437Y-2.75
X0.7625Y-1.25
X0.8312Y-3.5
X0.8562Y-4.25
X0.95Y-2.0
X1.0437Y-2.75
X1.1125Y-1.25
X1.2312Y-3.5
X1.3938Y-4.25
X1.4875Y-2.0
X1.5125Y-1.25
X1.675Y-2.75
X1.7937Y-4.25
X1.8625Y-1.25
X1.8875Y-2.0
X2.05Y-3.5
X2.075Y-2.75
X2.2375Y-2.0
X2.2625Y-1.25
X2.3312Y-4.25
X2.425Y-2.75
X2.45Y-3.5
X2.6125Y-1.25
X2.6375Y-2.0
X2.7312Y-4.25
X2.8Y-3.5
X2.825Y-2.75
X2.9875Y-2.0
X3.0125Y-1.25
X3.175Y-2.75
X3.2Y-3.5
X3.3625Y-1.25
X3.3875Y-2.0
X3.55Y-3.5
X3.575Y-2.75
X3.7375Y-2.0
X3.7625Y-1.25
X3.925Y-2.75
X3.95Y-3.5
X4.1125Y-1.25
X4.1375Y-2.0
X4.3Y-3.5
X4.325Y-2.75
X4.4875Y-2.0
X4.5125Y-1.25
X4.675Y-2.75
X4.7Y-3.5
X4.8625Y-1.25
X4.8875Y-2.0
X5.05Y-3.5
X5.075Y-2.75
X5.1437Y-4.25
X5.2375Y-2.0
X5.2625Y-1.25
X5.425Y-2.75
X5.45Y-3.5
X5.5438Y-4.25
X5.6125Y-1.25
X5.6375Y-2.0
X5.8Y-3.5
X5.825Y-2.75
X5.9875Y-2.0
X6.0125Y-1.25
X6.175Y-2.75
X6.2Y-3.5
X6.3625Y-1.25
X6.3875Y-2.0
X6.55Y-3.5
X6.575Y-2.75
X6.7375Y-2.0
X6.7625Y-1.25
X6.925Y-2.75
X6.95Y-3.5
X7.1125Y-1.25
X7.1375Y-2.0
X7.3Y-3.5
X7.325Y-2.75
X7.4875Y-2.0
X7.5125Y-1.25
X7.675Y-2.75
X7.7Y-3.5
X7.8625Y-1.25
X7.8875Y-2.0
X7.9562Y-4.25
X8.05Y-3.5
X8.075Y-2.75
X8.2375Y-2.0
X8.2625Y-1.25
X8.3562Y-4.25
X8.425Y-2.75
X8.45Y-3.5
X8.6125Y-1.25
X8.6375Y-2.0
X8.8Y-3.5
X8.825Y-2.75
X8.8937Y-4.25
X8.9875Y-2.0
X9.0125Y-1.25
X9.175Y-2.75
X9.2Y-3.5
X9.2937Y-4.25
X9.3625Y-1.25
X9.3875Y-2.0
X9.575Y-2.75
X9.7375Y-2.0
X9.7625Y-1.25
X9.8312Y-4.25
X10.1375Y-2.0
X10.2062Y-3.5
X10.2312Y-4.25
X10.3937Y-2.75
X10.4875Y-1.25
X10.6062Y-3.5
X10.675Y-2.0
X10.7687Y-4.25
X10.7937Y-2.75
X10.8875Y-1.25
X11.075Y-2.0
X11.1687Y-4.25
T2
X0.5613Y-3.225
X1.5012Y-3.225
X3.3752Y-3.975
X7.3122Y-3.975
X9.9362Y-3.225
X10.1237Y-2.475
X10.2175Y-0.975
X10.8763Y-3.225
X11.0637Y-2.475
X11.1575Y-0.975
T3
X0.5613Y-3.825
X0.5625Y-1.25
X0.6562Y-4.25
X0.75Y-2.0
X0.8438Y-2.75
X1.0312Y-3.5
X1.3125Y-1.25
X1.5012Y-3.825
X1.5938Y-4.25
X1.6875Y-2.0
X1.875Y-2.75
X2.0625Y-1.25
X2.25Y-3.5
X2.4375Y-2.0
X2.5312Y-4.25
X2.625Y-2.75
X2.8125Y-1.25
X3.0Y-3.5
X3.1875Y-2.0
X3.375Y-2.75
X3.3752Y-4.575
X3.5625Y-1.25
X3.75Y-3.5
X3.9375Y-2.0
X4.125Y-2.75
X4.3125Y-1.25
X4.5Y-3.5
X4.6875Y-2.0
X4.875Y-2.75
X5.0625Y-1.25
X5.25Y-3.5
X5.3438Y-4.25
X5.4375Y-2.0
X5.625Y-2.75
X5.8125Y-1.25
X6.0Y-3.5
X6.1875Y-2.0
X6.375Y-2.75
X6.5625Y-1.25
X6.75Y-3.5
X6.9375Y-2.0
X7.125Y-2.75
X7.3122Y-4.575
X7.3125Y-1.25
X7.5Y-3.5
X7.6875Y-2.0
X7.875Y-2.75
X8.0625Y-1.25
X8.1562Y-4.25
X8.25Y-3.5
X8.4375Y-2.0
X8.625Y-2.75
X8.8125Y-1.25
X9.0Y-3.5
X9.0938Y-4.25
X9.1875Y-2.0
X9.375Y-2.75
X9.5625Y-1.25
X9.9362Y-3.825
X9.9375Y-2.0
X10.0312Y-4.25
X10.1237Y-3.075
X10.2175Y-1.575
X10.4062Y-3.5
X10.5938Y-2.75
X10.6875Y-1.25
X10.875Y-2.0
X10.8763Y-3.825
X10.9688Y-4.25
X11.0637Y-3.075
X11.1575Y-1.575
T0
M30
