%TF.GenerationSoftware,KiCad,Pcbnew,(6.0.5)*%
%TF.CreationDate,2023-04-01T18:57:01-04:00*%
%TF.ProjectId,paperweight 60,70617065-7277-4656-9967-68742036302e,rev?*%
%TF.SameCoordinates,Original*%
%TF.FileFunction,Copper,L1,Top*%
%TF.FilePolarity,Positive*%
%FSLAX46Y46*%
G04 Gerber Fmt 4.6, Leading zero omitted, Abs format (unit mm)*
G04 Created by KiCad (PCBNEW (6.0.5)) date 2023-04-01 18:57:01*
%MOMM*%
%LPD*%
G01*
G04 APERTURE LIST*
G04 Aperture macros list*
%AMHorizOval*
0 Thick line with rounded ends*
0 $1 width*
0 $2 $3 position (X,Y) of the first rounded end (center of the circle)*
0 $4 $5 position (X,Y) of the second rounded end (center of the circle)*
0 Add line between two ends*
20,1,$1,$2,$3,$4,$5,0*
0 Add two circle primitives to create the rounded ends*
1,1,$1,$2,$3*
1,1,$1,$4,$5*%
G04 Aperture macros list end*
%TA.AperFunction,ComponentPad*%
%ADD10C,2.250000*%
%TD*%
%TA.AperFunction,ComponentPad*%
%ADD11HorizOval,2.250000X0.655001X0.730000X-0.655001X-0.730000X0*%
%TD*%
%TA.AperFunction,ComponentPad*%
%ADD12HorizOval,2.250000X0.020000X0.290000X-0.020000X-0.290000X0*%
%TD*%
%TA.AperFunction,Conductor*%
%ADD13C,0.250000*%
%TD*%
G04 APERTURE END LIST*
D10*
%TO.P,MX61,1,COL*%
%TO.N,Net-(MX60-Pad1)*%
X273725000Y-46800000D03*
D11*
X273070001Y-47530000D03*
D12*
%TO.P,MX61,2,ROW*%
%TO.N,Net-(MX12-Pad2)*%
X278745000Y-46010000D03*
D10*
X278765000Y-45720000D03*
%TD*%
D11*
%TO.P,MX60,1,COL*%
%TO.N,Net-(MX60-Pad1)*%
X268307501Y-28480000D03*
D10*
X268962500Y-27750000D03*
D12*
%TO.P,MX60,2,ROW*%
%TO.N,Net-(MX1-Pad2)*%
X273982500Y-26960000D03*
D10*
X274002500Y-26670000D03*
%TD*%
%TO.P,MX59,1,COL*%
%TO.N,Net-(MX57-Pad1)*%
X266581250Y-65850000D03*
D11*
X265926251Y-66580000D03*
D10*
%TO.P,MX59,2,ROW*%
%TO.N,Net-(MX13-Pad2)*%
X271621250Y-64770000D03*
D12*
X271601250Y-65060000D03*
%TD*%
D10*
%TO.P,MX58,1,COL*%
%TO.N,Net-(MX57-Pad1)*%
X249912500Y-46800000D03*
D11*
X249257501Y-47530000D03*
D10*
%TO.P,MX58,2,ROW*%
%TO.N,Net-(MX12-Pad2)*%
X254952500Y-45720000D03*
D12*
X254932500Y-46010000D03*
%TD*%
D10*
%TO.P,MX57,1,COL*%
%TO.N,Net-(MX57-Pad1)*%
X240387500Y-27750000D03*
D11*
X239732501Y-28480000D03*
D10*
%TO.P,MX57,2,ROW*%
%TO.N,Net-(MX1-Pad2)*%
X245427500Y-26670000D03*
D12*
X245407500Y-26960000D03*
%TD*%
D10*
%TO.P,MX56,1,COL*%
%TO.N,Net-(MX53-Pad1)*%
X261818750Y-84900000D03*
D11*
X261163751Y-85630000D03*
D12*
%TO.P,MX56,2,ROW*%
%TO.N,Net-(MX14-Pad2)*%
X266838750Y-84110000D03*
D10*
X266858750Y-83820000D03*
%TD*%
%TO.P,MX55,1,COL*%
%TO.N,Net-(MX53-Pad1)*%
X235625000Y-65850000D03*
D11*
X234970001Y-66580000D03*
D10*
%TO.P,MX55,2,ROW*%
%TO.N,Net-(MX13-Pad2)*%
X240665000Y-64770000D03*
D12*
X240645000Y-65060000D03*
%TD*%
D10*
%TO.P,MX54,1,COL*%
%TO.N,Net-(MX53-Pad1)*%
X230862500Y-46800000D03*
D11*
X230207501Y-47530000D03*
D10*
%TO.P,MX54,2,ROW*%
%TO.N,Net-(MX12-Pad2)*%
X235902500Y-45720000D03*
D12*
X235882500Y-46010000D03*
%TD*%
D10*
%TO.P,MX53,1,COL*%
%TO.N,Net-(MX53-Pad1)*%
X221337500Y-27750000D03*
D11*
X220682501Y-28480000D03*
D10*
%TO.P,MX53,2,ROW*%
%TO.N,Net-(MX1-Pad2)*%
X226377500Y-26670000D03*
D12*
X226357500Y-26960000D03*
%TD*%
D10*
%TO.P,MX52,1,COL*%
%TO.N,Net-(MX49-Pad1)*%
X226100000Y-84900000D03*
D11*
X225445001Y-85630000D03*
D10*
%TO.P,MX52,2,ROW*%
%TO.N,Net-(MX14-Pad2)*%
X231140000Y-83820000D03*
D12*
X231120000Y-84110000D03*
%TD*%
D10*
%TO.P,MX51,1,COL*%
%TO.N,Net-(MX49-Pad1)*%
X216575000Y-65850000D03*
D11*
X215920001Y-66580000D03*
D10*
%TO.P,MX51,2,ROW*%
%TO.N,Net-(MX13-Pad2)*%
X221615000Y-64770000D03*
D12*
X221595000Y-65060000D03*
%TD*%
D10*
%TO.P,MX50,1,COL*%
%TO.N,Net-(MX49-Pad1)*%
X211812500Y-46800000D03*
D11*
X211157501Y-47530000D03*
D10*
%TO.P,MX50,2,ROW*%
%TO.N,Net-(MX12-Pad2)*%
X216852500Y-45720000D03*
D12*
X216832500Y-46010000D03*
%TD*%
D10*
%TO.P,MX49,1,COL*%
%TO.N,Net-(MX49-Pad1)*%
X202287500Y-27750000D03*
D11*
X201632501Y-28480000D03*
D10*
%TO.P,MX49,2,ROW*%
%TO.N,Net-(MX1-Pad2)*%
X207327500Y-26670000D03*
D12*
X207307500Y-26960000D03*
%TD*%
D10*
%TO.P,MX48,1,COL*%
%TO.N,Net-(MX45-Pad1)*%
X207050000Y-84900000D03*
D11*
X206395001Y-85630000D03*
D10*
%TO.P,MX48,2,ROW*%
%TO.N,Net-(MX14-Pad2)*%
X212090000Y-83820000D03*
D12*
X212070000Y-84110000D03*
%TD*%
D10*
%TO.P,MX47,1,COL*%
%TO.N,Net-(MX45-Pad1)*%
X197525000Y-65850000D03*
D11*
X196870001Y-66580000D03*
D10*
%TO.P,MX47,2,ROW*%
%TO.N,Net-(MX13-Pad2)*%
X202565000Y-64770000D03*
D12*
X202545000Y-65060000D03*
%TD*%
D10*
%TO.P,MX46,1,COL*%
%TO.N,Net-(MX45-Pad1)*%
X192762500Y-46800000D03*
D11*
X192107501Y-47530000D03*
D10*
%TO.P,MX46,2,ROW*%
%TO.N,Net-(MX12-Pad2)*%
X197802500Y-45720000D03*
D12*
X197782500Y-46010000D03*
%TD*%
D10*
%TO.P,MX45,1,COL*%
%TO.N,Net-(MX45-Pad1)*%
X183237500Y-27750000D03*
D11*
X182582501Y-28480000D03*
D10*
%TO.P,MX45,2,ROW*%
%TO.N,Net-(MX1-Pad2)*%
X188277500Y-26670000D03*
D12*
X188257500Y-26960000D03*
%TD*%
D10*
%TO.P,MX44,1,COL*%
%TO.N,Net-(MX41-Pad1)*%
X188000000Y-84900000D03*
D11*
X187345001Y-85630000D03*
D10*
%TO.P,MX44,2,ROW*%
%TO.N,Net-(MX14-Pad2)*%
X193040000Y-83820000D03*
D12*
X193020000Y-84110000D03*
%TD*%
D10*
%TO.P,MX43,1,COL*%
%TO.N,Net-(MX41-Pad1)*%
X178475000Y-65850000D03*
D11*
X177820001Y-66580000D03*
D10*
%TO.P,MX43,2,ROW*%
%TO.N,Net-(MX13-Pad2)*%
X183515000Y-64770000D03*
D12*
X183495000Y-65060000D03*
%TD*%
D10*
%TO.P,MX42,1,COL*%
%TO.N,Net-(MX41-Pad1)*%
X173712500Y-46800000D03*
D11*
X173057501Y-47530000D03*
D10*
%TO.P,MX42,2,ROW*%
%TO.N,Net-(MX12-Pad2)*%
X178752500Y-45720000D03*
D12*
X178732500Y-46010000D03*
%TD*%
D10*
%TO.P,MX41,1,COL*%
%TO.N,Net-(MX41-Pad1)*%
X164187500Y-27750000D03*
D11*
X163532501Y-28480000D03*
D10*
%TO.P,MX41,2,ROW*%
%TO.N,Net-(MX1-Pad2)*%
X169227500Y-26670000D03*
D12*
X169207500Y-26960000D03*
%TD*%
D11*
%TO.P,MX40,1,COL*%
%TO.N,Net-(MX36-Pad1)*%
X275451251Y-104680000D03*
D10*
X276106250Y-103950000D03*
%TO.P,MX40,2,ROW*%
%TO.N,Net-(MX10-Pad2)*%
X281146250Y-102870000D03*
D12*
X281126250Y-103160000D03*
%TD*%
D10*
%TO.P,MX39,1,COL*%
%TO.N,Net-(MX36-Pad1)*%
X168950000Y-84900000D03*
D11*
X168295001Y-85630000D03*
D10*
%TO.P,MX39,2,ROW*%
%TO.N,Net-(MX14-Pad2)*%
X173990000Y-83820000D03*
D12*
X173970000Y-84110000D03*
%TD*%
D10*
%TO.P,MX38,1,COL*%
%TO.N,Net-(MX36-Pad1)*%
X159425000Y-65850000D03*
D11*
X158770001Y-66580000D03*
D10*
%TO.P,MX38,2,ROW*%
%TO.N,Net-(MX13-Pad2)*%
X164465000Y-64770000D03*
D12*
X164445000Y-65060000D03*
%TD*%
D10*
%TO.P,MX37,1,COL*%
%TO.N,Net-(MX36-Pad1)*%
X154662500Y-46800000D03*
D11*
X154007501Y-47530000D03*
D10*
%TO.P,MX37,2,ROW*%
%TO.N,Net-(MX12-Pad2)*%
X159702500Y-45720000D03*
D12*
X159682500Y-46010000D03*
%TD*%
D10*
%TO.P,MX36,1,COL*%
%TO.N,Net-(MX36-Pad1)*%
X145137500Y-27750000D03*
D11*
X144482501Y-28480000D03*
D10*
%TO.P,MX36,2,ROW*%
%TO.N,Net-(MX1-Pad2)*%
X150177500Y-26670000D03*
D12*
X150157500Y-26960000D03*
%TD*%
D11*
%TO.P,MX35,1,COL*%
%TO.N,Net-(MX31-Pad1)*%
X251638751Y-104680000D03*
D10*
X252293750Y-103950000D03*
%TO.P,MX35,2,ROW*%
%TO.N,Net-(MX10-Pad2)*%
X257333750Y-102870000D03*
D12*
X257313750Y-103160000D03*
%TD*%
D10*
%TO.P,MX34,1,COL*%
%TO.N,Net-(MX31-Pad1)*%
X149900000Y-84900000D03*
D11*
X149245001Y-85630000D03*
D10*
%TO.P,MX34,2,ROW*%
%TO.N,Net-(MX14-Pad2)*%
X154940000Y-83820000D03*
D12*
X154920000Y-84110000D03*
%TD*%
D10*
%TO.P,MX33,1,COL*%
%TO.N,Net-(MX31-Pad1)*%
X140375000Y-65850000D03*
D11*
X139720001Y-66580000D03*
D10*
%TO.P,MX33,2,ROW*%
%TO.N,Net-(MX13-Pad2)*%
X145415000Y-64770000D03*
D12*
X145395000Y-65060000D03*
%TD*%
D10*
%TO.P,MX32,1,COL*%
%TO.N,Net-(MX31-Pad1)*%
X135612500Y-46800000D03*
D11*
X134957501Y-47530000D03*
D10*
%TO.P,MX32,2,ROW*%
%TO.N,Net-(MX12-Pad2)*%
X140652500Y-45720000D03*
D12*
X140632500Y-46010000D03*
%TD*%
D10*
%TO.P,MX31,1,COL*%
%TO.N,Net-(MX31-Pad1)*%
X126087500Y-27750000D03*
D11*
X125432501Y-28480000D03*
D10*
%TO.P,MX31,2,ROW*%
%TO.N,Net-(MX1-Pad2)*%
X131127500Y-26670000D03*
D12*
X131107500Y-26960000D03*
%TD*%
D11*
%TO.P,MX30,1,COL*%
%TO.N,Net-(MX26-Pad1)*%
X227826251Y-104680000D03*
D10*
X228481250Y-103950000D03*
%TO.P,MX30,2,ROW*%
%TO.N,Net-(MX10-Pad2)*%
X233521250Y-102870000D03*
D12*
X233501250Y-103160000D03*
%TD*%
D10*
%TO.P,MX29,1,COL*%
%TO.N,Net-(MX26-Pad1)*%
X130850000Y-84900000D03*
D11*
X130195001Y-85630000D03*
D10*
%TO.P,MX29,2,ROW*%
%TO.N,Net-(MX14-Pad2)*%
X135890000Y-83820000D03*
D12*
X135870000Y-84110000D03*
%TD*%
D10*
%TO.P,MX28,1,COL*%
%TO.N,Net-(MX26-Pad1)*%
X121325000Y-65850000D03*
D11*
X120670001Y-66580000D03*
D10*
%TO.P,MX28,2,ROW*%
%TO.N,Net-(MX13-Pad2)*%
X126365000Y-64770000D03*
D12*
X126345000Y-65060000D03*
%TD*%
D10*
%TO.P,MX27,1,COL*%
%TO.N,Net-(MX26-Pad1)*%
X116562500Y-46800000D03*
D11*
X115907501Y-47530000D03*
D10*
%TO.P,MX27,2,ROW*%
%TO.N,Net-(MX12-Pad2)*%
X121602500Y-45720000D03*
D12*
X121582500Y-46010000D03*
%TD*%
D10*
%TO.P,MX26,1,COL*%
%TO.N,Net-(MX26-Pad1)*%
X107037500Y-27750000D03*
D11*
X106382501Y-28480000D03*
D10*
%TO.P,MX26,2,ROW*%
%TO.N,Net-(MX1-Pad2)*%
X112077500Y-26670000D03*
D12*
X112057500Y-26960000D03*
%TD*%
D11*
%TO.P,MX25,1,COL*%
%TO.N,Net-(MX21-Pad1)*%
X204013751Y-104680000D03*
D10*
X204668750Y-103950000D03*
%TO.P,MX25,2,ROW*%
%TO.N,Net-(MX10-Pad2)*%
X209708750Y-102870000D03*
D12*
X209688750Y-103160000D03*
%TD*%
D10*
%TO.P,MX24,1,COL*%
%TO.N,Net-(MX21-Pad1)*%
X111800000Y-84900000D03*
D11*
X111145001Y-85630000D03*
D10*
%TO.P,MX24,2,ROW*%
%TO.N,Net-(MX14-Pad2)*%
X116840000Y-83820000D03*
D12*
X116820000Y-84110000D03*
%TD*%
D10*
%TO.P,MX23,1,COL*%
%TO.N,Net-(MX21-Pad1)*%
X102275000Y-65850000D03*
D11*
X101620001Y-66580000D03*
D10*
%TO.P,MX23,2,ROW*%
%TO.N,Net-(MX13-Pad2)*%
X107315000Y-64770000D03*
D12*
X107295000Y-65060000D03*
%TD*%
D10*
%TO.P,MX22,1,COL*%
%TO.N,Net-(MX21-Pad1)*%
X97512500Y-46800000D03*
D11*
X96857501Y-47530000D03*
D10*
%TO.P,MX22,2,ROW*%
%TO.N,Net-(MX12-Pad2)*%
X102552500Y-45720000D03*
D12*
X102532500Y-46010000D03*
%TD*%
D10*
%TO.P,MX21,1,COL*%
%TO.N,Net-(MX21-Pad1)*%
X87987500Y-27750000D03*
D11*
X87332501Y-28480000D03*
D10*
%TO.P,MX21,2,ROW*%
%TO.N,Net-(MX1-Pad2)*%
X93027500Y-26670000D03*
D12*
X93007500Y-26960000D03*
%TD*%
D10*
%TO.P,MX20,1,COL*%
%TO.N,Net-(MX16-Pad1)*%
X133231250Y-103950000D03*
D11*
X132576251Y-104680000D03*
D12*
%TO.P,MX20,2,ROW*%
%TO.N,Net-(MX10-Pad2)*%
X138251250Y-103160000D03*
D10*
X138271250Y-102870000D03*
%TD*%
%TO.P,MX19,1,COL*%
%TO.N,Net-(MX16-Pad1)*%
X92750000Y-84900000D03*
D11*
X92095001Y-85630000D03*
D10*
%TO.P,MX19,2,ROW*%
%TO.N,Net-(MX14-Pad2)*%
X97790000Y-83820000D03*
D12*
X97770000Y-84110000D03*
%TD*%
D10*
%TO.P,MX18,1,COL*%
%TO.N,Net-(MX16-Pad1)*%
X83225000Y-65850000D03*
D11*
X82570001Y-66580000D03*
D10*
%TO.P,MX18,2,ROW*%
%TO.N,Net-(MX13-Pad2)*%
X88265000Y-64770000D03*
D12*
X88245000Y-65060000D03*
%TD*%
D10*
%TO.P,MX17,1,COL*%
%TO.N,Net-(MX16-Pad1)*%
X78462500Y-46800000D03*
D11*
X77807501Y-47530000D03*
D10*
%TO.P,MX17,2,ROW*%
%TO.N,Net-(MX12-Pad2)*%
X83502500Y-45720000D03*
D12*
X83482500Y-46010000D03*
%TD*%
D10*
%TO.P,MX16,1,COL*%
%TO.N,Net-(MX16-Pad1)*%
X68937500Y-27750000D03*
D11*
X68282501Y-28480000D03*
D10*
%TO.P,MX16,2,ROW*%
%TO.N,Net-(MX1-Pad2)*%
X73977500Y-26670000D03*
D12*
X73957500Y-26960000D03*
%TD*%
D11*
%TO.P,MX15,1,COL*%
%TO.N,Net-(MX11-Pad1)*%
X61138751Y-104680000D03*
D10*
X61793750Y-103950000D03*
%TO.P,MX15,2,ROW*%
%TO.N,Net-(MX10-Pad2)*%
X66833750Y-102870000D03*
D12*
X66813750Y-103160000D03*
%TD*%
D10*
%TO.P,MX14,1,COL*%
%TO.N,Net-(MX11-Pad1)*%
X73700000Y-84900000D03*
D11*
X73045001Y-85630000D03*
D10*
%TO.P,MX14,2,ROW*%
%TO.N,Net-(MX14-Pad2)*%
X78740000Y-83820000D03*
D12*
X78720000Y-84110000D03*
%TD*%
D10*
%TO.P,MX13,1,COL*%
%TO.N,Net-(MX11-Pad1)*%
X64175000Y-65850000D03*
D11*
X63520001Y-66580000D03*
D10*
%TO.P,MX13,2,ROW*%
%TO.N,Net-(MX13-Pad2)*%
X69215000Y-64770000D03*
D12*
X69195000Y-65060000D03*
%TD*%
D10*
%TO.P,MX12,1,COL*%
%TO.N,Net-(MX11-Pad1)*%
X59412500Y-46800000D03*
D11*
X58757501Y-47530000D03*
D10*
%TO.P,MX12,2,ROW*%
%TO.N,Net-(MX12-Pad2)*%
X64452500Y-45720000D03*
D12*
X64432500Y-46010000D03*
%TD*%
D10*
%TO.P,MX11,1,COL*%
%TO.N,Net-(MX11-Pad1)*%
X49887500Y-27750000D03*
D11*
X49232501Y-28480000D03*
D10*
%TO.P,MX11,2,ROW*%
%TO.N,Net-(MX1-Pad2)*%
X54927500Y-26670000D03*
D12*
X54907500Y-26960000D03*
%TD*%
D11*
%TO.P,MX10,1,COL*%
%TO.N,Net-(MX10-Pad1)*%
X37326251Y-104680000D03*
D10*
X37981250Y-103950000D03*
%TO.P,MX10,2,ROW*%
%TO.N,Net-(MX10-Pad2)*%
X43021250Y-102870000D03*
D12*
X43001250Y-103160000D03*
%TD*%
D10*
%TO.P,MX9,1,COL*%
%TO.N,Net-(MX10-Pad1)*%
X54650000Y-84900000D03*
D11*
X53995001Y-85630000D03*
D10*
%TO.P,MX9,2,ROW*%
%TO.N,Net-(MX14-Pad2)*%
X59690000Y-83820000D03*
D12*
X59670000Y-84110000D03*
%TD*%
D10*
%TO.P,MX8,1,COL*%
%TO.N,Net-(MX10-Pad1)*%
X45125000Y-65850000D03*
D11*
X44470001Y-66580000D03*
D10*
%TO.P,MX8,2,ROW*%
%TO.N,Net-(MX13-Pad2)*%
X50165000Y-64770000D03*
D12*
X50145000Y-65060000D03*
%TD*%
D10*
%TO.P,MX7,1,COL*%
%TO.N,Net-(MX10-Pad1)*%
X40362500Y-46800000D03*
D11*
X39707501Y-47530000D03*
D10*
%TO.P,MX7,2,ROW*%
%TO.N,Net-(MX12-Pad2)*%
X45402500Y-45720000D03*
D12*
X45382500Y-46010000D03*
%TD*%
D10*
%TO.P,MX6,1,COL*%
%TO.N,Net-(MX10-Pad1)*%
X30837500Y-27750000D03*
D11*
X30182501Y-28480000D03*
D10*
%TO.P,MX6,2,ROW*%
%TO.N,Net-(MX1-Pad2)*%
X35877500Y-26670000D03*
D12*
X35857500Y-26960000D03*
%TD*%
D11*
%TO.P,MX5,1,COL*%
%TO.N,Net-(MX1-Pad1)*%
X13513751Y-104680000D03*
D10*
X14168750Y-103950000D03*
%TO.P,MX5,2,ROW*%
%TO.N,Net-(MX10-Pad2)*%
X19208750Y-102870000D03*
D12*
X19188750Y-103160000D03*
%TD*%
D10*
%TO.P,MX4,1,COL*%
%TO.N,Net-(MX1-Pad1)*%
X23693750Y-84900000D03*
D11*
X23038751Y-85630000D03*
D10*
%TO.P,MX4,2,ROW*%
%TO.N,Net-(MX14-Pad2)*%
X28733750Y-83820000D03*
D12*
X28713750Y-84110000D03*
%TD*%
D11*
%TO.P,MX3,1,COL*%
%TO.N,Net-(MX1-Pad1)*%
X18276251Y-66580000D03*
D10*
X18931250Y-65850000D03*
D12*
%TO.P,MX3,2,ROW*%
%TO.N,Net-(MX13-Pad2)*%
X23951250Y-65060000D03*
D10*
X23971250Y-64770000D03*
%TD*%
%TO.P,MX2,1,COL*%
%TO.N,Net-(MX1-Pad1)*%
X16550000Y-46800000D03*
D11*
X15895001Y-47530000D03*
D12*
%TO.P,MX2,2,ROW*%
%TO.N,Net-(MX12-Pad2)*%
X21570000Y-46010000D03*
D10*
X21590000Y-45720000D03*
%TD*%
%TO.P,MX1,1,COL*%
%TO.N,Net-(MX1-Pad1)*%
X11787500Y-27750000D03*
D11*
X11132501Y-28480000D03*
D10*
%TO.P,MX1,2,ROW*%
%TO.N,Net-(MX1-Pad2)*%
X16827500Y-26670000D03*
D12*
X16807500Y-26960000D03*
%TD*%
D13*
%TO.N,Net-(MX10-Pad2)*%
X257333750Y-102870000D02*
X257333750Y-114935000D01*
X257175000Y-115093750D02*
X233362500Y-115093750D01*
X257333750Y-114935000D02*
X257175000Y-115093750D01*
X276225000Y-115093750D02*
X257175000Y-115093750D01*
X233521250Y-114935000D02*
X233362500Y-115093750D01*
X233521250Y-102870000D02*
X233521250Y-114935000D01*
X233362500Y-115093750D02*
X209550000Y-115093750D01*
X209708750Y-114935000D02*
X209550000Y-115093750D01*
X209550000Y-115093750D02*
X188912500Y-115093750D01*
X209708750Y-102870000D02*
X209708750Y-114935000D01*
X138271250Y-113347500D02*
X138112500Y-113506250D01*
X138112500Y-113506250D02*
X66675000Y-113506250D01*
X138271250Y-102870000D02*
X138271250Y-113347500D01*
X187325000Y-113506250D02*
X138112500Y-113506250D01*
X66833750Y-113347500D02*
X66675000Y-113506250D01*
X66675000Y-113506250D02*
X42862500Y-113506250D01*
X66833750Y-102870000D02*
X66833750Y-113347500D01*
X43021250Y-113347500D02*
X42862500Y-113506250D01*
X42862500Y-113506250D02*
X18256250Y-113506250D01*
X43021250Y-102870000D02*
X43021250Y-113347500D01*
X19050000Y-113506250D02*
X18256250Y-113506250D01*
X18256250Y-113506250D02*
X8731250Y-113506250D01*
X19168750Y-113387500D02*
X19050000Y-113506250D01*
X19168750Y-103450000D02*
X19168750Y-113387500D01*
X188912500Y-115093750D02*
X187325000Y-113506250D01*
X281146250Y-110172500D02*
X276225000Y-115093750D01*
X281146250Y-102870000D02*
X281146250Y-110172500D01*
%TO.N,Net-(MX14-Pad2)*%
X231140000Y-81915000D02*
X228600000Y-79375000D01*
X231140000Y-83820000D02*
X231140000Y-81915000D01*
X228600000Y-79375000D02*
X209550000Y-79375000D01*
X252525665Y-79375000D02*
X228600000Y-79375000D01*
X212090000Y-81915000D02*
X209550000Y-79375000D01*
X212090000Y-83820000D02*
X212090000Y-81915000D01*
X209550000Y-79375000D02*
X191293750Y-79375000D01*
X193040000Y-83820000D02*
X193040000Y-81121250D01*
X193040000Y-81121250D02*
X191293750Y-79375000D01*
X191293750Y-79375000D02*
X171450000Y-79375000D01*
X173990000Y-81915000D02*
X171450000Y-79375000D01*
X173990000Y-83820000D02*
X173990000Y-81915000D01*
X171450000Y-79375000D02*
X153193750Y-79375000D01*
X154940000Y-81121250D02*
X153193750Y-79375000D01*
X154940000Y-83820000D02*
X154940000Y-81121250D01*
X153193750Y-79375000D02*
X134143750Y-79375000D01*
X135890000Y-81121250D02*
X134143750Y-79375000D01*
X134143750Y-79375000D02*
X115093750Y-79375000D01*
X135890000Y-83820000D02*
X135890000Y-81121250D01*
X116840000Y-81121250D02*
X115093750Y-79375000D01*
X115093750Y-79375000D02*
X96043750Y-79375000D01*
X116840000Y-83820000D02*
X116840000Y-81121250D01*
X97790000Y-81121250D02*
X96043750Y-79375000D01*
X97790000Y-83820000D02*
X97790000Y-81121250D01*
X96043750Y-79375000D02*
X76993750Y-79375000D01*
X78740000Y-81121250D02*
X76993750Y-79375000D01*
X76993750Y-79375000D02*
X57943750Y-79375000D01*
X78740000Y-83820000D02*
X78740000Y-81121250D01*
X59690000Y-83820000D02*
X59690000Y-81121250D01*
X57943750Y-79375000D02*
X26987500Y-79375000D01*
X59690000Y-81121250D02*
X57943750Y-79375000D01*
X28733750Y-83820000D02*
X26987500Y-82073750D01*
X26987500Y-82073750D02*
X26987500Y-79375000D01*
X26987500Y-79375000D02*
X11906250Y-79375000D01*
X255845665Y-82695000D02*
X252525665Y-79375000D01*
X265733750Y-82695000D02*
X255845665Y-82695000D01*
X266858750Y-83820000D02*
X265733750Y-82695000D01*
%TO.N,Net-(MX13-Pad2)*%
X239712500Y-60325000D02*
X220662500Y-60325000D01*
X240665000Y-64770000D02*
X240665000Y-61277500D01*
X240665000Y-61277500D02*
X239712500Y-60325000D01*
X267176250Y-60325000D02*
X239712500Y-60325000D01*
X221615000Y-61277500D02*
X220662500Y-60325000D01*
X221615000Y-64770000D02*
X221615000Y-61277500D01*
X220662500Y-60325000D02*
X201612500Y-60325000D01*
X202565000Y-61277500D02*
X201612500Y-60325000D01*
X202565000Y-64770000D02*
X202565000Y-61277500D01*
X201612500Y-60325000D02*
X182562500Y-60325000D01*
X183515000Y-64770000D02*
X183515000Y-61277500D01*
X182562500Y-60325000D02*
X163512500Y-60325000D01*
X183515000Y-61277500D02*
X182562500Y-60325000D01*
X164465000Y-61277500D02*
X163512500Y-60325000D01*
X164465000Y-64770000D02*
X164465000Y-61277500D01*
X163512500Y-60325000D02*
X144462500Y-60325000D01*
X145415000Y-64770000D02*
X145415000Y-61277500D01*
X144462500Y-60325000D02*
X125412500Y-60325000D01*
X145415000Y-61277500D02*
X144462500Y-60325000D01*
X126365000Y-64770000D02*
X126365000Y-61277500D01*
X126365000Y-61277500D02*
X125412500Y-60325000D01*
X125412500Y-60325000D02*
X106362500Y-60325000D01*
X107315000Y-61277500D02*
X106362500Y-60325000D01*
X107315000Y-64770000D02*
X107315000Y-61277500D01*
X106362500Y-60325000D02*
X87312500Y-60325000D01*
X88265000Y-64770000D02*
X88265000Y-61277500D01*
X87312500Y-60325000D02*
X67468750Y-60325000D01*
X88265000Y-61277500D02*
X87312500Y-60325000D01*
X68262500Y-60325000D02*
X67468750Y-60325000D01*
X69215000Y-61277500D02*
X68262500Y-60325000D01*
X69215000Y-64770000D02*
X69215000Y-61277500D01*
X67468750Y-60325000D02*
X49212500Y-60325000D01*
X50165000Y-61277500D02*
X49212500Y-60325000D01*
X49212500Y-60325000D02*
X23018750Y-60325000D01*
X50165000Y-64770000D02*
X50165000Y-61277500D01*
X23971250Y-64770000D02*
X23971250Y-61277500D01*
X23018750Y-60325000D02*
X11906250Y-60325000D01*
X23971250Y-61277500D02*
X23018750Y-60325000D01*
X271621250Y-64770000D02*
X267176250Y-60325000D01*
%TO.N,Net-(MX12-Pad2)*%
X254952500Y-43815000D02*
X254000000Y-42862500D01*
X254000000Y-42862500D02*
X234156250Y-42862500D01*
X275907500Y-42862500D02*
X254000000Y-42862500D01*
X254952500Y-45720000D02*
X254952500Y-43815000D01*
X234950000Y-42862500D02*
X234156250Y-42862500D01*
X235902500Y-43815000D02*
X234950000Y-42862500D01*
X234156250Y-42862500D02*
X215900000Y-42862500D01*
X235902500Y-45720000D02*
X235902500Y-43815000D01*
X216852500Y-45720000D02*
X216852500Y-43815000D01*
X216852500Y-43815000D02*
X215900000Y-42862500D01*
X215900000Y-42862500D02*
X196850000Y-42862500D01*
X196850000Y-42862500D02*
X177800000Y-42862500D01*
X197802500Y-43815000D02*
X196850000Y-42862500D01*
X197802500Y-45720000D02*
X197802500Y-43815000D01*
X178752500Y-45720000D02*
X178752500Y-43815000D01*
X177800000Y-42862500D02*
X158750000Y-42862500D01*
X178752500Y-43815000D02*
X177800000Y-42862500D01*
X159702500Y-43815000D02*
X158750000Y-42862500D01*
X159702500Y-45720000D02*
X159702500Y-43815000D01*
X158750000Y-42862500D02*
X138906250Y-42862500D01*
X139700000Y-42862500D02*
X138906250Y-42862500D01*
X138906250Y-42862500D02*
X120650000Y-42862500D01*
X140652500Y-43815000D02*
X139700000Y-42862500D01*
X140652500Y-45720000D02*
X140652500Y-43815000D01*
X121602500Y-43815000D02*
X120650000Y-42862500D01*
X121602500Y-45720000D02*
X121602500Y-43815000D01*
X120650000Y-42862500D02*
X101600000Y-42862500D01*
X102552500Y-43815000D02*
X101600000Y-42862500D01*
X102552500Y-45720000D02*
X102552500Y-43815000D01*
X101600000Y-42862500D02*
X82550000Y-42862500D01*
X83502500Y-43815000D02*
X82550000Y-42862500D01*
X83502500Y-45720000D02*
X83502500Y-43815000D01*
X82550000Y-42862500D02*
X63500000Y-42862500D01*
X64452500Y-43815000D02*
X63500000Y-42862500D01*
X64452500Y-45720000D02*
X64452500Y-43815000D01*
X63500000Y-42862500D02*
X44450000Y-42862500D01*
X45402500Y-43815000D02*
X44450000Y-42862500D01*
X45402500Y-45720000D02*
X45402500Y-43815000D01*
X44450000Y-42862500D02*
X20637500Y-42862500D01*
X21590000Y-43815000D02*
X20637500Y-42862500D01*
X20637500Y-42862500D02*
X14287500Y-42862500D01*
X21590000Y-45720000D02*
X21590000Y-43815000D01*
X278765000Y-45720000D02*
X275907500Y-42862500D01*
%TO.N,Net-(MX1-Pad2)*%
X245427500Y-26670000D02*
X245427500Y-23349208D01*
X245910229Y-22866479D02*
X226860229Y-22866479D01*
X245427500Y-23349208D02*
X245910229Y-22866479D01*
X260991479Y-22866479D02*
X245910229Y-22866479D01*
X226377500Y-26670000D02*
X226377500Y-23349208D01*
X226377500Y-23349208D02*
X226860229Y-22866479D01*
X226860229Y-22866479D02*
X207810229Y-22866479D01*
X207327500Y-23349208D02*
X207810229Y-22866479D01*
X207810229Y-22866479D02*
X188760229Y-22866479D01*
X207327500Y-26670000D02*
X207327500Y-23349208D01*
X188277500Y-23349208D02*
X188760229Y-22866479D01*
X188277500Y-26670000D02*
X188277500Y-23349208D01*
X188760229Y-22866479D02*
X170014771Y-22866479D01*
X169227500Y-26670000D02*
X169227500Y-23653750D01*
X170014771Y-22866479D02*
X150964771Y-22866479D01*
X169227500Y-23653750D02*
X170014771Y-22866479D01*
X150177500Y-23653750D02*
X150964771Y-22866479D01*
X150177500Y-26670000D02*
X150177500Y-23653750D01*
X150964771Y-22866479D02*
X131914771Y-22866479D01*
X131127500Y-26670000D02*
X131127500Y-23653750D01*
X131914771Y-22866479D02*
X112864771Y-22866479D01*
X131127500Y-23653750D02*
X131914771Y-22866479D01*
X112077500Y-23653750D02*
X112864771Y-22866479D01*
X112077500Y-26670000D02*
X112077500Y-23653750D01*
X112864771Y-22866479D02*
X93510229Y-22866479D01*
X93027500Y-23349208D02*
X93510229Y-22866479D01*
X93510229Y-22866479D02*
X74764771Y-22866479D01*
X93027500Y-26670000D02*
X93027500Y-23349208D01*
X73977500Y-23653750D02*
X74764771Y-22866479D01*
X73977500Y-26670000D02*
X73977500Y-23653750D01*
X74764771Y-22866479D02*
X55410229Y-22866479D01*
X54927500Y-23349208D02*
X55410229Y-22866479D01*
X54927500Y-26670000D02*
X54927500Y-23349208D01*
X55410229Y-22866479D02*
X36664771Y-22866479D01*
X35877500Y-26670000D02*
X35877500Y-23653750D01*
X36664771Y-22866479D02*
X17310229Y-22866479D01*
X35877500Y-23653750D02*
X36664771Y-22866479D01*
X16827500Y-23349208D02*
X17310229Y-22866479D01*
X16827500Y-26670000D02*
X16827500Y-23349208D01*
X17310229Y-22866479D02*
X6502271Y-22866479D01*
X6502271Y-22866479D02*
X6350000Y-23018750D01*
X261937500Y-23812500D02*
X260991479Y-22866479D01*
X274002500Y-26670000D02*
X271145000Y-23812500D01*
X271145000Y-23812500D02*
X261937500Y-23812500D01*
%TD*%
M02*
