%TF.GenerationSoftware,KiCad,Pcbnew,(6.0.5)*%
%TF.CreationDate,2023-04-01T18:57:01-04:00*%
%TF.ProjectId,paperweight 60,70617065-7277-4656-9967-68742036302e,rev?*%
%TF.SameCoordinates,Original*%
%TF.FileFunction,Soldermask,Top*%
%TF.FilePolarity,Negative*%
%FSLAX46Y46*%
G04 Gerber Fmt 4.6, Leading zero omitted, Abs format (unit mm)*
G04 Created by KiCad (PCBNEW (6.0.5)) date 2023-04-01 18:57:01*
%MOMM*%
%LPD*%
G01*
G04 APERTURE LIST*
%ADD10C,1.750000*%
%ADD11C,3.987800*%
%ADD12C,3.048000*%
G04 APERTURE END LIST*
D10*
%TO.C,MX61*%
X271145000Y-50800000D03*
D11*
X276225000Y-50800000D03*
D10*
X281305000Y-50800000D03*
%TD*%
%TO.C,MX60*%
X276542500Y-31750000D03*
D11*
X283400500Y-40005000D03*
X271462500Y-31750000D03*
D12*
X283400500Y-24765000D03*
D11*
X259524500Y-40005000D03*
D10*
X266382500Y-31750000D03*
D12*
X259524500Y-24765000D03*
%TD*%
%TO.C,MX59*%
X281019250Y-62865000D03*
D11*
X257143250Y-78105000D03*
D10*
X274161250Y-69850000D03*
D12*
X257143250Y-62865000D03*
D11*
X269081250Y-69850000D03*
D10*
X264001250Y-69850000D03*
D11*
X281019250Y-78105000D03*
%TD*%
D10*
%TO.C,MX58*%
X257492500Y-50800000D03*
X247332500Y-50800000D03*
D11*
X252412500Y-50800000D03*
%TD*%
D10*
%TO.C,MX57*%
X247967500Y-31750000D03*
X237807500Y-31750000D03*
D11*
X242887500Y-31750000D03*
%TD*%
D12*
%TO.C,MX56*%
X252380750Y-81915000D03*
D11*
X252380750Y-97155000D03*
D10*
X259238750Y-88900000D03*
D11*
X276256750Y-97155000D03*
D10*
X269398750Y-88900000D03*
D11*
X264318750Y-88900000D03*
D12*
X276256750Y-81915000D03*
%TD*%
D10*
%TO.C,MX55*%
X243205000Y-69850000D03*
X233045000Y-69850000D03*
D11*
X238125000Y-69850000D03*
%TD*%
D10*
%TO.C,MX54*%
X238442500Y-50800000D03*
X228282500Y-50800000D03*
D11*
X233362500Y-50800000D03*
%TD*%
D10*
%TO.C,MX53*%
X228917500Y-31750000D03*
X218757500Y-31750000D03*
D11*
X223837500Y-31750000D03*
%TD*%
D10*
%TO.C,MX52*%
X233680000Y-88900000D03*
X223520000Y-88900000D03*
D11*
X228600000Y-88900000D03*
%TD*%
D10*
%TO.C,MX51*%
X224155000Y-69850000D03*
X213995000Y-69850000D03*
D11*
X219075000Y-69850000D03*
%TD*%
D10*
%TO.C,MX50*%
X219392500Y-50800000D03*
X209232500Y-50800000D03*
D11*
X214312500Y-50800000D03*
%TD*%
D10*
%TO.C,MX49*%
X209867500Y-31750000D03*
X199707500Y-31750000D03*
D11*
X204787500Y-31750000D03*
%TD*%
D10*
%TO.C,MX48*%
X214630000Y-88900000D03*
X204470000Y-88900000D03*
D11*
X209550000Y-88900000D03*
%TD*%
D10*
%TO.C,MX47*%
X205105000Y-69850000D03*
X194945000Y-69850000D03*
D11*
X200025000Y-69850000D03*
%TD*%
D10*
%TO.C,MX46*%
X200342500Y-50800000D03*
X190182500Y-50800000D03*
D11*
X195262500Y-50800000D03*
%TD*%
D10*
%TO.C,MX45*%
X190817500Y-31750000D03*
X180657500Y-31750000D03*
D11*
X185737500Y-31750000D03*
%TD*%
D10*
%TO.C,MX44*%
X195580000Y-88900000D03*
X185420000Y-88900000D03*
D11*
X190500000Y-88900000D03*
%TD*%
D10*
%TO.C,MX43*%
X186055000Y-69850000D03*
X175895000Y-69850000D03*
D11*
X180975000Y-69850000D03*
%TD*%
D10*
%TO.C,MX42*%
X181292500Y-50800000D03*
X171132500Y-50800000D03*
D11*
X176212500Y-50800000D03*
%TD*%
D10*
%TO.C,MX41*%
X171767500Y-31750000D03*
X161607500Y-31750000D03*
D11*
X166687500Y-31750000D03*
%TD*%
D10*
%TO.C,MX40*%
X273526250Y-107950000D03*
X283686250Y-107950000D03*
D11*
X278606250Y-107950000D03*
%TD*%
D10*
%TO.C,MX39*%
X176530000Y-88900000D03*
X166370000Y-88900000D03*
D11*
X171450000Y-88900000D03*
%TD*%
D10*
%TO.C,MX38*%
X167005000Y-69850000D03*
X156845000Y-69850000D03*
D11*
X161925000Y-69850000D03*
%TD*%
D10*
%TO.C,MX37*%
X162242500Y-50800000D03*
X152082500Y-50800000D03*
D11*
X157162500Y-50800000D03*
%TD*%
D10*
%TO.C,MX36*%
X152717500Y-31750000D03*
X142557500Y-31750000D03*
D11*
X147637500Y-31750000D03*
%TD*%
D10*
%TO.C,MX35*%
X249713750Y-107950000D03*
X259873750Y-107950000D03*
D11*
X254793750Y-107950000D03*
%TD*%
D10*
%TO.C,MX34*%
X157480000Y-88900000D03*
X147320000Y-88900000D03*
D11*
X152400000Y-88900000D03*
%TD*%
D10*
%TO.C,MX33*%
X147955000Y-69850000D03*
X137795000Y-69850000D03*
D11*
X142875000Y-69850000D03*
%TD*%
D10*
%TO.C,MX32*%
X143192500Y-50800000D03*
X133032500Y-50800000D03*
D11*
X138112500Y-50800000D03*
%TD*%
D10*
%TO.C,MX31*%
X133667500Y-31750000D03*
X123507500Y-31750000D03*
D11*
X128587500Y-31750000D03*
%TD*%
D10*
%TO.C,MX30*%
X225901250Y-107950000D03*
X236061250Y-107950000D03*
D11*
X230981250Y-107950000D03*
%TD*%
D10*
%TO.C,MX29*%
X138430000Y-88900000D03*
X128270000Y-88900000D03*
D11*
X133350000Y-88900000D03*
%TD*%
D10*
%TO.C,MX28*%
X128905000Y-69850000D03*
X118745000Y-69850000D03*
D11*
X123825000Y-69850000D03*
%TD*%
D10*
%TO.C,MX27*%
X124142500Y-50800000D03*
X113982500Y-50800000D03*
D11*
X119062500Y-50800000D03*
%TD*%
D10*
%TO.C,MX26*%
X114617500Y-31750000D03*
X104457500Y-31750000D03*
D11*
X109537500Y-31750000D03*
%TD*%
D10*
%TO.C,MX25*%
X202088750Y-107950000D03*
X212248750Y-107950000D03*
D11*
X207168750Y-107950000D03*
%TD*%
D10*
%TO.C,MX24*%
X119380000Y-88900000D03*
X109220000Y-88900000D03*
D11*
X114300000Y-88900000D03*
%TD*%
D10*
%TO.C,MX23*%
X109855000Y-69850000D03*
X99695000Y-69850000D03*
D11*
X104775000Y-69850000D03*
%TD*%
D10*
%TO.C,MX22*%
X105092500Y-50800000D03*
X94932500Y-50800000D03*
D11*
X100012500Y-50800000D03*
%TD*%
D10*
%TO.C,MX21*%
X95567500Y-31750000D03*
X85407500Y-31750000D03*
D11*
X90487500Y-31750000D03*
%TD*%
D12*
%TO.C,MX20*%
X85731350Y-100965000D03*
D10*
X130651250Y-107950000D03*
D11*
X85731350Y-116205000D03*
D10*
X140811250Y-107950000D03*
D11*
X185731150Y-116205000D03*
D12*
X185731150Y-100965000D03*
D11*
X135731250Y-107950000D03*
%TD*%
D10*
%TO.C,MX19*%
X100330000Y-88900000D03*
X90170000Y-88900000D03*
D11*
X95250000Y-88900000D03*
%TD*%
D10*
%TO.C,MX18*%
X90805000Y-69850000D03*
X80645000Y-69850000D03*
D11*
X85725000Y-69850000D03*
%TD*%
D10*
%TO.C,MX17*%
X86042500Y-50800000D03*
X75882500Y-50800000D03*
D11*
X80962500Y-50800000D03*
%TD*%
D10*
%TO.C,MX16*%
X76517500Y-31750000D03*
X66357500Y-31750000D03*
D11*
X71437500Y-31750000D03*
%TD*%
D10*
%TO.C,MX15*%
X59213750Y-107950000D03*
X69373750Y-107950000D03*
D11*
X64293750Y-107950000D03*
%TD*%
D10*
%TO.C,MX14*%
X81280000Y-88900000D03*
X71120000Y-88900000D03*
D11*
X76200000Y-88900000D03*
%TD*%
D10*
%TO.C,MX13*%
X71755000Y-69850000D03*
X61595000Y-69850000D03*
D11*
X66675000Y-69850000D03*
%TD*%
D10*
%TO.C,MX12*%
X66992500Y-50800000D03*
X56832500Y-50800000D03*
D11*
X61912500Y-50800000D03*
%TD*%
D10*
%TO.C,MX11*%
X57467500Y-31750000D03*
X47307500Y-31750000D03*
D11*
X52387500Y-31750000D03*
%TD*%
D10*
%TO.C,MX10*%
X35401250Y-107950000D03*
X45561250Y-107950000D03*
D11*
X40481250Y-107950000D03*
%TD*%
D10*
%TO.C,MX9*%
X62230000Y-88900000D03*
X52070000Y-88900000D03*
D11*
X57150000Y-88900000D03*
%TD*%
D10*
%TO.C,MX8*%
X52705000Y-69850000D03*
X42545000Y-69850000D03*
D11*
X47625000Y-69850000D03*
%TD*%
D10*
%TO.C,MX7*%
X47942500Y-50800000D03*
X37782500Y-50800000D03*
D11*
X42862500Y-50800000D03*
%TD*%
D10*
%TO.C,MX6*%
X38417500Y-31750000D03*
X28257500Y-31750000D03*
D11*
X33337500Y-31750000D03*
%TD*%
D10*
%TO.C,MX5*%
X11588750Y-107950000D03*
X21748750Y-107950000D03*
D11*
X16668750Y-107950000D03*
%TD*%
D12*
%TO.C,MX4*%
X38131750Y-81915000D03*
D11*
X14255750Y-97155000D03*
D10*
X31273750Y-88900000D03*
D12*
X14255750Y-81915000D03*
D11*
X26193750Y-88900000D03*
D10*
X21113750Y-88900000D03*
D11*
X38131750Y-97155000D03*
%TD*%
D10*
%TO.C,MX3*%
X26511250Y-69850000D03*
X16351250Y-69850000D03*
D11*
X21431250Y-69850000D03*
%TD*%
D10*
%TO.C,MX2*%
X13970000Y-50800000D03*
D11*
X19050000Y-50800000D03*
D10*
X24130000Y-50800000D03*
%TD*%
%TO.C,MX1*%
X19367500Y-31750000D03*
X9207500Y-31750000D03*
D11*
X14287500Y-31750000D03*
%TD*%
M02*
