M48
; DRILL file {KiCad (6.0.5)} date Sat Apr  1 18:57:06 2023
; FORMAT={-:-/ absolute / inch / decimal}
; #@! TF.CreationDate,2023-04-01T18:57:06-04:00
; #@! TF.GenerationSoftware,Kicad,Pcbnew,(6.0.5)
; #@! TF.FileFunction,Plated,1,2,PTH
FMAT,2
INCH
; #@! TA.AperFunction,Plated,PTH,ComponentDrill
T1C0.0579
%
G90
G05
T1
X0.4125Y-1.15
X0.4641Y-1.0925
X0.5062Y-4.15
X0.5578Y-4.0925
X0.6Y-1.9
X0.6516Y-1.8425
X0.6609Y-1.0728
X0.6625Y-1.05
X0.6937Y-2.65
X0.7453Y-2.5925
X0.7547Y-4.0728
X0.7562Y-4.05
X0.8484Y-1.8228
X0.85Y-1.8
X0.8812Y-3.4
X0.9328Y-3.3425
X0.9422Y-2.5728
X0.9437Y-2.55
X1.1297Y-3.3228
X1.1312Y-3.3
X1.1625Y-1.15
X1.2141Y-1.0925
X1.4109Y-1.0728
X1.4125Y-1.05
X1.4437Y-4.15
X1.4953Y-4.0925
X1.5375Y-1.9
X1.5891Y-1.8425
X1.6922Y-4.0728
X1.6937Y-4.05
X1.725Y-2.65
X1.7766Y-2.5925
X1.7859Y-1.8228
X1.7875Y-1.8
X1.9125Y-1.15
X1.9641Y-1.0925
X1.9734Y-2.5728
X1.975Y-2.55
X2.1Y-3.4
X2.1516Y-3.3425
X2.1609Y-1.0728
X2.1625Y-1.05
X2.2875Y-1.9
X2.3391Y-1.8425
X2.3484Y-3.3228
X2.35Y-3.3
X2.3813Y-4.15
X2.4328Y-4.0925
X2.475Y-2.65
X2.5266Y-2.5925
X2.5359Y-1.8228
X2.5375Y-1.8
X2.6297Y-4.0728
X2.6313Y-4.05
X2.6625Y-1.15
X2.7141Y-1.0925
X2.7234Y-2.5728
X2.725Y-2.55
X2.85Y-3.4
X2.9016Y-3.3425
X2.9109Y-1.0728
X2.9125Y-1.05
X3.0375Y-1.9
X3.0891Y-1.8425
X3.0984Y-3.3228
X3.1Y-3.3
X3.225Y-2.65
X3.2766Y-2.5925
X3.2859Y-1.8228
X3.2875Y-1.8
X3.4125Y-1.15
X3.4641Y-1.0925
X3.4734Y-2.5728
X3.475Y-2.55
X3.6Y-3.4
X3.6516Y-3.3425
X3.6609Y-1.0728
X3.6625Y-1.05
X3.7875Y-1.9
X3.8391Y-1.8425
X3.8484Y-3.3228
X3.85Y-3.3
X3.975Y-2.65
X4.0266Y-2.5925
X4.0359Y-1.8228
X4.0375Y-1.8
X4.1625Y-1.15
X4.2141Y-1.0925
X4.2234Y-2.5728
X4.225Y-2.55
X4.35Y-3.4
X4.4016Y-3.3425
X4.4109Y-1.0728
X4.4125Y-1.05
X4.5375Y-1.9
X4.5891Y-1.8425
X4.5984Y-3.3228
X4.6Y-3.3
X4.725Y-2.65
X4.7766Y-2.5925
X4.7859Y-1.8228
X4.7875Y-1.8
X4.9125Y-1.15
X4.9641Y-1.0925
X4.9734Y-2.5728
X4.975Y-2.55
X5.1Y-3.4
X5.1516Y-3.3425
X5.1609Y-1.0728
X5.1625Y-1.05
X5.1937Y-4.15
X5.2453Y-4.0925
X5.2875Y-1.9
X5.3391Y-1.8425
X5.3484Y-3.3228
X5.35Y-3.3
X5.4422Y-4.0728
X5.4437Y-4.05
X5.475Y-2.65
X5.5266Y-2.5925
X5.5359Y-1.8228
X5.5375Y-1.8
X5.6625Y-1.15
X5.7141Y-1.0925
X5.7234Y-2.5728
X5.725Y-2.55
X5.85Y-3.4
X5.9016Y-3.3425
X5.9109Y-1.0728
X5.9125Y-1.05
X6.0375Y-1.9
X6.0891Y-1.8425
X6.0984Y-3.3228
X6.1Y-3.3
X6.225Y-2.65
X6.2766Y-2.5925
X6.2859Y-1.8228
X6.2875Y-1.8
X6.4125Y-1.15
X6.4641Y-1.0925
X6.4734Y-2.5728
X6.475Y-2.55
X6.6Y-3.4
X6.6516Y-3.3425
X6.6609Y-1.0728
X6.6625Y-1.05
X6.7875Y-1.9
X6.8391Y-1.8425
X6.8484Y-3.3228
X6.85Y-3.3
X6.975Y-2.65
X7.0266Y-2.5925
X7.0359Y-1.8228
X7.0375Y-1.8
X7.1625Y-1.15
X7.2141Y-1.0925
X7.2234Y-2.5728
X7.225Y-2.55
X7.35Y-3.4
X7.4016Y-3.3425
X7.4109Y-1.0728
X7.4125Y-1.05
X7.5375Y-1.9
X7.5891Y-1.8425
X7.5984Y-3.3228
X7.6Y-3.3
X7.725Y-2.65
X7.7766Y-2.5925
X7.7859Y-1.8228
X7.7875Y-1.8
X7.9125Y-1.15
X7.9641Y-1.0925
X7.9734Y-2.5728
X7.975Y-2.55
X8.0062Y-4.15
X8.0578Y-4.0925
X8.1Y-3.4
X8.1516Y-3.3425
X8.1609Y-1.0728
X8.1625Y-1.05
X8.2547Y-4.0728
X8.2562Y-4.05
X8.2875Y-1.9
X8.3391Y-1.8425
X8.3484Y-3.3228
X8.35Y-3.3
X8.475Y-2.65
X8.5266Y-2.5925
X8.5359Y-1.8228
X8.5375Y-1.8
X8.6625Y-1.15
X8.7141Y-1.0925
X8.7234Y-2.5728
X8.725Y-2.55
X8.85Y-3.4
X8.9016Y-3.3425
X8.9109Y-1.0728
X8.9125Y-1.05
X8.9437Y-4.15
X8.9953Y-4.0925
X9.0375Y-1.9
X9.0891Y-1.8425
X9.0984Y-3.3228
X9.1Y-3.3
X9.1922Y-4.0728
X9.1937Y-4.05
X9.225Y-2.65
X9.2766Y-2.5925
X9.2859Y-1.8228
X9.2875Y-1.8
X9.4125Y-1.15
X9.4641Y-1.0925
X9.4734Y-2.5728
X9.475Y-2.55
X9.6609Y-1.0728
X9.6625Y-1.05
X9.7875Y-1.9
X9.8391Y-1.8425
X9.8812Y-4.15
X9.9328Y-4.0925
X10.0359Y-1.8228
X10.0375Y-1.8
X10.1297Y-4.0728
X10.1312Y-4.05
X10.2562Y-3.4
X10.3078Y-3.3425
X10.4437Y-2.65
X10.4953Y-2.5925
X10.5047Y-3.3228
X10.5062Y-3.3
X10.5375Y-1.15
X10.5891Y-1.0925
X10.6922Y-2.5728
X10.6937Y-2.55
X10.725Y-1.9
X10.7766Y-1.8425
X10.7859Y-1.0728
X10.7875Y-1.05
X10.8187Y-4.15
X10.8703Y-4.0925
X10.9734Y-1.8228
X10.975Y-1.8
X11.0672Y-4.0728
X11.0687Y-4.05
T0
M30
